<svg width="131" height="28" viewBox="0 0 131 28" fill="none" xmlns="http://www.w3.org/2000/svg">
<path d="M131 8H121V28H113V8H103V6.99382e-07H131V8Z" fill="#111827"/>
<path fill-rule="evenodd" clip-rule="evenodd" d="M18 6.99382e-07C23.5228 6.99382e-07 28 4.47715 28 10V18C28 23.5228 23.5228 28 18 28H0V6.99382e-07H18ZM8 8V20H19C19.5523 20 20 19.5523 20 19V9C20 8.44772 19.5523 8 19 8H8Z" fill="#111827"/>
<path fill-rule="evenodd" clip-rule="evenodd" d="M48 6.99382e-07C53.5228 8.28238e-07 58 4.47715 58 10V11C58 14.5865 56.1108 17.7303 53.2744 19.4951L55.2256 23.0068L53.7998 28H49L45.1113 21H38V28H30V6.99382e-07H48ZM38 13H48C49.1046 13 50 12.1046 50 11V10C50 8.89543 49.1046 8 48 8H38V13Z" fill="#111827"/>
<path d="M101 8H85V13H94V21H85V28H77V11.2002L80.2002 6.99382e-07H101V8Z" fill="#111827"/>
<path d="M67 28H59L67 0L75 6.99382e-07L67 28Z" fill="#111827"/>
</svg>
